<svg class="svg-icon" style="width: 1em; height: 1em;vertical-align: middle;fill: currentColor;overflow: hidden;" viewBox="0 0 1024 1024" version="1.1" xmlns="http://www.w3.org/2000/svg"><path d="M637.6 680.96c-6.4 1.232-11.456 4.784-21.152 15.088l-7.712 8.192c-18.16 19.248-33.44 30.112-56.528 36.048-26.352 6.816-54 0.4-76.464-17.072-15.424-12.08-72.704-69.36-99.936-101.856l-18.976-22.4-0.688-0.88c-37.952-44.704-50.656-60.752-55.84-73.04-14.672-34.4-15.024-67.376 0-95.104 8.4-15.68 21.296-26.48 40.48-37.536 2.32-1.376 18.976-10.448 22.256-12.496 2.24-1.36 3.008-2.048 2.24-0.816 12.72-21.984 5.472-88.816-19.776-149.568-28.96-69.92-86.368-122.4-107.664-117.088-36.928 9.36-90.32 40.624-115.648 69.84-58.56 67.584 3.616 338.4 157.92 522.448 137.76 164.176 363.568 269.248 496.96 238.72 30.656-7.04 84.384-80.416 88.624-125.536 1.568-17.072-48-63.36-108.272-96.128-49.84-27.04-100.16-44.368-119.888-40.816h0.08z m144.256-4.16c78.64 42.72 139.2 99.2 134.768 145.952-6.144 65.536-74.016 158.24-128.144 170.592C633.856 1028.8 389.808 915.2 240.912 737.552 72.368 536.72 4.24 240.032 83.488 148.816c32.432-37.536 95.104-74.208 141.92-86.016 53.328-13.312 129.92 56.672 167.392 147.2 30.72 74.064 39.6 155.36 16.864 194.752a53.52 53.52 0 0 1-19.184 18.432c-4.976 3.2-23.2 13.04-24.16 13.648-11.6 6.704-18.08 12.096-20.896 17.408-7.088 13.12-6.96 29.84 2.048 50.88 2.048 4.832 17.28 24 47.728 60l0.672 0.8 19.12 22.608c25.12 29.968 79.872 84.8 92.304 94.48a36.656 36.656 0 0 0 32.08 7.776c11.952-3.072 20-8.8 32.08-21.632l7.712-8.192c16.528-17.472 29.36-26.624 49.152-30.24 35.44-6.56 93.392 13.52 153.536 46.144V676.8z" fill="#000000" /><path d="M941.056 493.712a25.6 25.6 0 1 1-51.056-3.008c10.848-183.776-130.128-342.16-314.304-353.008a25.6 25.6 0 0 1 3.008-51.136C791.072 99.12 953.6 281.76 941.056 493.712zM641.44 476a25.6 25.6 0 1 1-51.136-2.992 34 34 0 0 0-32.224-35.632 25.6 25.6 0 1 1 2.928-51.072c47.104 2.72 83.152 42.88 80.432 89.696z m149.76 9.568a25.632 25.632 0 0 1-51.2-2.528c5.056-101.312-72.896-189.104-173.392-195.52a25.6 25.6 0 1 1 3.28-51.056c128.48 8.192 227.68 119.872 221.328 249.104z" fill="#000000" /></svg>